<svg width="571" height="906" viewBox="0 0 571 906" fill="none" xmlns="http://www.w3.org/2000/svg">
    <path
        d="M92.4193 695.679C113.646 697.672 134.721 701.397 156.156 701.585C167.095 701.687 177.893 700.751 188.355 697.143C195.474 694.661 202.779 692.534 209.58 689.377C214.644 687.059 219.291 683.922 223.335 680.093C231.219 672.447 234.419 664.21 229.004 652.069C225.261 643.64 219.433 636.58 213.501 629.707C203.471 618.148 193.308 606.695 183.01 595.35C175.183 586.665 165.916 579.394 155.618 573.858C145.874 568.614 135.712 564.188 125.237 560.624C119.831 558.797 114.728 555.935 109.436 553.777C97.4535 548.973 88.1411 540.633 80.159 530.85C70.3851 518.951 65.5118 505.024 64.8821 489.271C64.3798 476.669 66.6053 464.479 69.6139 452.385C72.7535 439.687 76.5573 427.156 83.4562 415.864C91.0251 403.426 101.639 395.165 116.173 393.425C129.395 391.844 142.666 391.181 155.915 389.785C175.138 387.733 193.772 383 211.138 374.303C222.028 368.863 232.416 361.976 239.894 352.073C248.732 340.316 254.856 327.143 255.087 312.002C255.219 302.158 255.103 292.333 255.317 282.485C255.456 273.75 256.434 264.901 260.094 257.015C262.773 251.284 268.095 247.041 273.773 243.735C281.056 239.507 288.864 237.282 297.074 236.028C313.701 233.508 330.071 233.782 346.481 237.943C359.517 241.184 369.252 248.602 377.386 258.726C383.635 266.471 387.521 275.678 391.25 284.859C395.286 294.837 398.668 305.107 403.101 314.867C409.847 329.757 419.577 343.104 431.69 354.081C443.794 365.064 456.452 375.479 468.514 386.516C482.8 399.615 494.878 414.421 502.152 432.94C505.601 441.742 507.849 450.829 509.634 460.057C512.518 475.11 515.49 490.193 517.755 505.354C520.901 526.51 520.355 547.61 514.143 568.427C511.415 577.638 507.783 586.495 502.667 594.575C495.893 605.236 487.588 614.727 478.92 623.823C467.367 635.996 454.834 647.252 444.677 660.733C437.335 670.437 431.188 680.969 428.69 692.938C427.542 698.601 427.687 704.451 429.114 710.051C431.584 719.551 435.501 728.615 440.728 736.925C448.263 749.284 453.026 762.667 452.504 777.524C452.31 782.988 451.568 788.474 448.652 793.349C441.996 804.527 427.678 807.697 418.461 798.992C413.392 794.222 410.096 788.435 407.182 782.299C404.268 776.163 402.125 769.316 398.337 763.697C392.354 754.839 383.2 750.882 372.635 752.948C364.825 754.468 357.012 756.858 350.608 762.32C345.075 767.03 340.764 773.008 338.04 779.744C329.477 800.333 331.74 821.102 335.58 841.77M107.565 707.298C126.673 709.824 145.646 713.44 165.09 713.448C178.429 713.504 191.714 711.735 204.574 708.191C214.3 705.507 224.012 702.795 233.603 699.649C241.692 697.002 249.851 694.119 256.664 688.712C262.751 683.888 267.678 677.861 266.964 669.471C266.623 665.295 265.437 661.232 263.477 657.529C259.389 649.977 252.72 644.617 246.295 639.136C239.742 633.575 233.076 628.147 226.508 622.62C213.415 611.567 202.342 598.507 190.738 585.947C183.632 578.267 175.904 571.324 166.835 565.749C159.241 561.033 151.259 557.59 142.924 554.64C133.976 551.428 124.809 548.62 116.146 544.728C103.26 538.983 92.5881 530.211 85.0145 517.98C74.5253 501.001 75.1062 482.748 79.6352 464.06C81.7121 455.469 84.6005 447.139 89.0705 439.529C97.6093 425.012 109.405 413.907 125.716 409.133C134.347 406.636 143.402 405.658 152.314 404.3C169.16 401.78 185.829 398.454 202.019 392.834C218.039 387.286 232.755 378.521 245.263 367.077C252.931 360.114 258.523 351.538 262.719 342.215C266.492 333.829 268.684 324.818 269.183 315.636C269.792 304.687 270.687 293.754 271.869 282.835C274.026 263.324 288.966 253.234 305.063 250.811C318.351 248.779 331.94 250.276 344.466 255.154C349.39 257.172 353.88 260.118 357.692 263.832C363.584 269.512 369.298 275.57 373.001 283.17C378.39 294.346 383.75 305.541 389.458 316.584C398.758 334.426 411.639 350.158 427.296 362.795C439.46 372.693 451.62 382.687 463.353 393.151C477.83 406.086 489.28 421.43 494.798 440.489C498.283 452.499 500.89 464.786 503.49 477.046C506.534 491.455 509.177 505.972 510.286 520.737C511.418 536.213 509.089 551.129 504.426 565.893C499.804 580.467 491.176 592.299 480.85 603.046C468.164 616.273 453.82 627.485 439.16 638.364C426.953 647.393 415.256 657.092 404.122 667.415C395.195 675.722 387.747 685.545 379.359 694.479C371.625 702.616 363.021 709.879 353.701 716.136C344.982 722.07 335.525 727.198 328.515 735.272C319.126 746.01 314.252 758.64 313.073 772.947C311.273 794.501 312.723 815.83 315.798 837.052M153.622 721.089C168.728 722.709 183.98 722.376 199.001 720.098C215.233 717.522 231.522 715.284 247.803 713.251C258.289 711.818 268.926 711.89 279.392 713.465C289.076 715.006 294.326 720.651 295.184 730.954C296.443 745.935 297.248 760.99 298.603 775.975C300.938 801.848 303.235 827.803 308.472 853.232M145.343 728.12C162.234 730.847 179.279 730.996 196.374 729.935C209.088 729.156 221.817 728.145 234.55 728.01C244.008 728.001 253.373 729.874 262.101 733.518C264.798 734.599 266.836 737.106 269.043 739.086C275.831 745.127 279.656 753.142 282.564 761.568C287.48 775.839 289.642 790.818 292.129 805.679M109.395 689.697C125.371 691.23 141.323 693.083 157.398 692.041C173.473 690.999 189.085 687.013 202.033 676.401C208.662 670.953 213.027 662.06 210.309 651.575C207.591 641.089 201.518 632.632 195.372 624.289C190.374 617.595 185.006 611.187 179.292 605.093C174.24 599.641 168.952 594.289 163.059 589.812C156.636 585.073 149.834 580.872 142.722 577.25C137.136 574.315 131.035 572.402 125.198 569.979C120.399 567.996 115.623 565.952 110.911 563.835C106.805 561.986 102.554 560.364 98.7255 558.012C79.6387 546.055 64.9789 530.193 58.9798 507.732C55.5207 494.615 55.2578 481.05 57.2099 467.51C58.5403 458.18 60.211 448.897 61.8605 439.634L66.1846 421.322C68.521 413.322 70.3238 405.131 74.6933 397.845C78.2007 391.917 80.8956 386.337 86.9735 383.126C86.9735 383.126 96.2023 379.591 102.157 379.276C108.111 378.961 114.321 378.97 122.402 378.854C134.295 378.675 146.206 379.701 158.067 379.083C171.237 378.382 184.019 374.945 196.37 369.941C210.421 364.285 223.046 356.801 232.173 344.001C237.485 336.565 242.02 328.662 243.391 319.718C244.737 311.121 244.615 302.246 244.666 293.487C244.724 283.23 243.789 272.979 244.187 262.735C244.608 250.918 249.932 241.409 260.341 235.269C267.613 231.059 275.596 228.216 283.892 226.88C307.286 222.925 330.62 220.671 353.897 226.156C361.303 227.904 368.654 230.244 374.588 235.291C383.511 242.871 390.633 251.831 395.455 262.774C401.093 275.6 404.777 289.095 408.968 302.403C410.976 308.828 413.298 315.277 416.439 321.182C424.393 335.985 435.191 348.522 447.694 359.643C461.23 371.696 475.145 383.318 487.406 396.824C498.593 409.184 506.83 423.333 511.427 439.254C515.506 453.42 518.019 468.131 520.709 482.671C524.96 505.823 528.039 529.062 524.418 552.782C522.456 565.659 519.457 578.239 514.198 590.157C509.657 600.336 503.425 609.607 496.68 618.477C487.856 630.077 477.851 640.801 470.393 653.413C466.273 660.4 461.914 667.385 458.994 674.893C455.294 684.494 455.393 694.77 457.33 704.742C460.216 719.74 463.92 734.617 466.675 749.638C469.293 763.923 470.583 778.228 467.815 792.957C465.503 805.097 458.865 813.84 449.526 820.484C437.673 828.953 423.911 831.883 409.601 831.778C399.549 831.714 389.809 829.651 380.317 826.551C376.612 825.338 371.531 825.896 370.362 828.193C368.686 831.471 366.82 834.907 366.419 838.469C365.333 847.67 364.777 856.959 364.386 866.219M191.337 739.249C200.463 739.176 209.637 738.532 218.705 738.943C229.883 739.423 241.071 740.607 251.085 746.155C258 750.096 263.762 755.781 267.794 762.643C272.877 771.072 277.146 780.074 279.602 789.647C282.844 802.347 285.531 815.238 287.579 828.23M175.389 749.788C187.258 750.272 199.137 750.886 210.974 751.875C220.521 752.666 230.027 754.604 238.784 758.376C242.528 760.007 245.816 762.942 248.953 765.714C258.15 773.817 263.715 784.452 268.461 795.632M221.966 787.611C226.121 789.42 229.606 792.984 233.058 796.096M182.181 758.428C195.58 759.541 208.887 760.746 222.059 763.841C233.67 766.593 242.31 773.261 249.794 782.035C256.851 790.349 261.247 800.19 265.205 810.241M191.636 767.956C201.238 769.187 210.765 770.95 220.172 773.239C228.145 775.212 234.629 780.21 240.449 785.963C249.469 794.826 255.305 805.744 259.798 817.469M402.433 885.99C409.763 873.94 421.113 866.137 431.176 859.731C434.192 857.787 437.281 855.941 440.266 854.118C446.418 850.37 452.779 846.5 458.696 842.238C466.525 836.637 473.368 829.773 478.945 821.927C483.395 815.636 485.282 808.543 487.125 800.579C490.276 786.972 489.737 772.905 488.992 760.787L488.233 748.853C487.395 735.89 486.524 722.489 486.14 709.268C485.736 695.439 487.019 684.549 490.149 675.01C492.346 668.389 494.938 661.907 497.911 655.596C500.777 649.433 504.015 643.585 507.994 636.702C509.7 633.733 511.555 630.811 513.351 628.002C515.829 624.096 518.421 620.057 520.537 615.947C528.394 600.77 533.48 584.325 536.085 565.678C538.923 545.457 539.146 524.954 536.751 504.676C535.274 492.545 533.324 480.261 531.442 468.383C530.532 462.64 529.588 456.69 528.708 450.853C526.159 433.876 519.437 417.886 508.165 401.967C503.529 395.387 497.835 389.337 492.326 383.485L488.985 379.947C484.478 375.122 479.568 370.488 474.831 366.011C467.353 358.954 459.612 351.648 453.117 343.312C446.067 334.239 438.343 323.144 434.48 309.671C430.906 296.87 428.218 283.838 426.436 270.668C424.203 255.2 418.896 239.999 410.198 224.199C405.06 214.831 398.371 206.195 389.717 197.803C383 191.272 374.653 188.486 363.452 189.031C355.06 189.416 346.666 191.217 338.548 192.933C334.771 193.742 330.864 194.581 326.989 195.257C307.443 198.706 292.505 201.239 278.563 203.472C273.989 204.191 269.325 204.771 264.818 205.335C258.361 206.138 251.684 206.968 245.224 208.222C235.212 210.136 227.14 214.794 221.225 222.066C219.795 223.82 218.258 225.879 217.748 227.899L217.503 228.841C216.075 234.385 214.599 240.118 215.345 245.862C216.117 251.853 216.902 257.845 217.701 263.837C218.634 270.86 219.6 278.123 220.508 285.275C221.575 293.739 222.286 303.75 219.539 313.883C215.732 328.021 207.77 338.633 195.847 345.431C181.591 353.589 166.224 357.043 148.869 355.995C139.314 355.443 130.047 353.322 121.065 351.265C117.558 350.456 113.928 349.643 110.35 348.914L109.33 348.741C107.289 348.422 105.204 348.027 103.213 347.648C98.6955 346.803 94.0225 345.892 89.4748 345.88C77.5614 345.867 67.8423 348.578 59.7709 354.186C53.0254 358.857 44.7071 365.448 40.1627 374.957C36.2641 383.321 34.5929 392.551 35.3111 401.751C36.8923 425.745 37.7873 445.959 37.0137 466.36C36.7933 471.796 36.924 477.24 37.405 482.658L37.4014 482.761L37.5597 487.923C38.7193 499.735 39.9196 511.944 44.7948 523.32C50.9528 537.662 59.333 549.902 69.7021 559.681C77.641 567.22 85.2607 572.962 93.0144 577.246C96.2274 579.015 99.6169 580.634 102.906 582.194C104.99 583.191 107.149 584.219 109.252 585.285L114.863 588.09C121.543 591.419 128.444 594.866 135.105 598.515C139.113 600.841 142.952 603.448 146.591 606.317L147.883 607.286C154.595 612.401 159.314 619.142 163.05 625.061C166.48 630.543 168.449 636.812 168.769 643.272C169.259 652.754 163.669 660.325 153.033 664.597C142.945 668.636 131.625 670.388 117.403 670.1M320.546 577.092C319.535 576.17 318.454 575.329 317.312 574.576C310.893 571.012 305.081 566.452 300.092 561.065C295.484 556.025 293.44 550.248 294.331 543.448C295.374 535.753 297.452 528.235 300.509 521.098C302.864 515.464 304.929 509.697 307.082 503.981C309.195 498.393 311.31 492.771 313.466 487.165C315.39 482.09 317.286 477.042 319.326 471.992C320.467 469.146 321.745 466.306 323.096 463.509C326.17 457.244 328.963 450.839 332.488 444.809C338.867 433.909 346.011 423.405 355.944 415.449C360.359 411.885 365.332 409.183 371.386 408.366C383.757 406.672 395.09 409.544 406.446 413.668C419.436 418.432 429.069 427.351 436.678 438.414C442.413 446.876 446.432 456.381 448.506 466.39C451.482 480.386 454.96 494.312 457.558 508.383C459.762 519.709 459.21 531.399 455.949 542.467C453.518 550.636 448.722 556.826 443.312 562.987C431.909 575.917 417.263 583.898 401.644 589.422C387.669 594.416 372.55 595.272 358.1 591.888C349.282 589.837 340.736 587.248 332.732 582.908C328.881 580.808 324.81 579.118 320.841 577.26M142.044 498.055C141.125 497.174 140.2 496.259 139.259 495.391C132.554 489.134 132.48 479.488 139.491 472.919C148.419 464.572 158.708 463.159 170.181 465.544C177.901 467.139 184.056 475.195 184.152 480.964C184.266 488.156 180.446 492.678 174.766 496.224C166.193 501.527 157.065 501.462 147.729 499.557C145.916 499.185 144.135 498.67 142.305 498.215M272.273 574.445C269.236 571.786 266.162 569.187 263.203 566.428C255.261 558.971 257.512 545.865 263.115 538.719C268.22 532.281 273.427 525.873 277.843 518.999C283.092 510.828 288.321 502.472 292.151 493.622C296.862 482.689 300.104 471.144 304.042 459.849C306.738 452.107 309.597 444.426 312.288 436.65C315.27 428.087 319.202 419.886 324.011 412.2C329.972 402.673 336.428 393.444 347.027 388.322C352.712 385.576 358.567 385.744 364.504 386.509C373.893 387.756 383.06 390.32 391.733 394.125C398.153 396.884 404.808 399.173 411.035 402.335C416.152 404.963 420.999 408.088 425.503 411.665C432.734 417.394 439.437 423.699 444.691 431.552C451.391 441.605 455.525 452.688 458.338 464.353C460.334 472.631 461.889 481.03 463.658 489.375C466.337 501.904 468.72 514.512 468.343 527.417C468.09 537.414 465.87 547.163 460.674 555.951C456.306 563.394 450.336 569.713 443.791 575.266C429.14 587.769 411.862 596.813 393.239 601.728C378.149 605.793 362.241 605.699 347.2 601.458C339.076 599.117 331.223 596.102 323.292 593.323C312.018 589.386 300.77 585.457 289.584 581.346C283.83 579.288 278.241 576.839 272.576 574.585M253.166 584.4C249.118 580.542 244.85 576.902 241.098 572.782C230.817 561.473 227.691 548.231 232.147 533.316C233.568 528.579 237.183 524.994 240.689 521.596C247.015 515.468 253.875 509.871 259.802 503.414C265.232 497.452 269.092 490.476 272.343 482.911C277.115 471.803 278.792 460.038 281.344 448.482C283.789 437.4 286.713 426.548 292.441 416.637C296.086 410.31 299.631 403.898 303.451 397.639C307.804 390.613 312.158 383.587 316.991 376.919C320.765 371.71 324.934 366.798 329.462 362.228C334.532 357.163 340.939 356.44 347.512 358.343C351.354 359.354 355.093 360.726 358.678 362.44C367.29 366.809 375.75 371.446 384.18 376.123C393.811 381.458 403.537 386.646 412.865 392.429C424.657 399.687 436.009 407.614 445.384 418.042C455.978 429.752 462.61 443.461 465.811 459.031C468.47 471.949 471.68 484.771 473.926 497.763C475.673 507.872 477.207 518.178 477.206 528.41C477.197 540.399 474.039 552.057 467.227 562.251C461.537 570.714 454.19 577.695 446.335 584.118C433.586 594.532 418.986 601.611 404.044 608.089C390.5 613.887 375.834 616.596 361.113 616.021C351.809 615.69 342.663 613.641 333.779 610.747C315.147 604.66 296.552 598.48 277.427 593.942C269.038 591.961 260.862 589.147 253.426 584.594M374.339 545.282C373.563 544.611 372.731 543.952 371.99 543.256C364.718 536.192 362.498 527.872 364.966 517.701C367.662 506.512 374.781 499.42 384.268 494.197C388.921 491.627 397.971 493.488 402.15 497.152C412.964 506.537 415.331 518.439 411.643 531.925C410.205 537.167 405.74 540.606 401.56 543.535C393.058 549.525 383.848 548.862 374.64 545.484M360.19 560.255C358.861 559.155 357.532 558.054 356.204 556.947C343.754 546.437 340.142 533.027 343.548 517.048C345.679 507.427 349.502 498.261 354.839 489.977C357.36 486.193 360.26 482.676 363.494 479.479C369.252 473.529 374.956 467.576 382.741 464.078C390.949 460.39 399.158 459.751 406.518 464.725C410.933 467.693 414.698 472.198 417.537 476.792C422.526 484.964 426.767 493.616 429.124 503.104C431.75 513.675 432.475 524.24 429.585 534.936C428.401 539.415 426.18 543.553 423.103 547.016C416.46 554.556 408.605 560.617 399.131 563.549C393.399 565.308 387.062 565.411 380.992 565.516C373.773 565.635 366.915 563.648 360.45 560.429M427.439 78.6865C423.322 77.521 419.373 75.6639 415.351 74.153M415.041 74.012C411.329 70.7066 407.248 67.7573 404.002 64.0444M249.192 601.733C248.576 601.044 247.887 600.426 247.137 599.888C231.054 590.589 219.686 576.787 210.222 560.959C206.14 554.291 201.676 547.864 196.853 541.71C195.035 539.368 192.157 537.789 189.589 536.138C180.012 530.052 169.389 527.212 158.261 525.325C149.422 523.869 140.414 522.338 132.237 518.99C115.386 512.044 104.09 497.197 109.829 476.015C113.833 461.331 124.293 452.593 136.853 445.776C149.412 438.96 163.113 438.134 176.759 436.937C188.478 435.891 200.312 435.621 211.925 433.893C223.575 432.179 234.628 427.642 244.122 420.676C257.431 410.955 269.478 399.614 279.984 386.915C288.007 377.277 294.305 366.367 299.415 354.97C303.561 345.7 306.509 335.908 310.008 326.355C311.602 321.919 312.966 317.419 316.331 313.77C322.235 307.36 332.51 306.139 338.732 311.968C345.747 318.431 352.407 325.269 358.685 332.45C367.612 342.767 376.904 352.638 387.767 360.841C396.014 367.03 404.435 372.938 412.808 379.029C422.227 385.902 431.953 392.431 440.972 399.796C455.509 411.591 467.309 425.764 472.904 444.196C475.964 454.325 478.207 464.704 480.422 475.103C482.843 486.454 484.933 497.888 486.871 509.337C489.131 522.713 488.881 536.082 485.27 549.351C482.936 557.95 478.815 565.96 473.176 572.858C461.456 587.419 446.869 599.417 430.319 608.108C417.918 614.704 405.289 620.964 392.441 626.642C380.293 631.871 367.166 634.436 353.943 634.163C345.349 634.069 336.824 631.858 328.576 628.979C312.646 623.443 296.664 618.087 280.63 612.911C270.901 609.761 260.934 607.314 251.841 602.436C251.068 602.173 250.27 601.994 249.459 601.899M240.167 608.572C236.177 605.366 231.997 602.338 228.199 598.934C218.814 590.43 210.286 581.026 202.737 570.856C196.86 563.049 190.846 555.237 182.705 549.722C177.629 546.178 172.102 543.33 166.271 541.252C154.107 537.133 141.578 534.218 129.414 530.092C114.419 525.024 103.479 514.951 98.0585 499.862C96.2589 494.888 96.0263 488.929 96.5118 483.55C97.2902 474.933 99.1735 466.403 103.87 458.767C107.99 452.128 113.255 446.274 119.422 441.477C129.485 433.518 141.073 428.842 153.623 426.731C167.685 424.407 181.816 422.427 195.748 419.339C215.265 414.979 233.519 407.291 249.653 394.782C259.127 387.438 267.898 379.468 274.777 369.686C279.905 362.355 284.094 354.409 287.245 346.036C292.237 332.795 294.018 318.865 296.607 305.101C298.295 296.113 301.984 288.536 310.069 283.517C316.364 279.589 322.842 280.49 329.358 281.891C335.419 283.208 340.356 286.68 344.726 290.932C355.72 301.582 363.221 314.891 371.764 327.362C379.138 338.095 387.163 348.229 396.954 356.743C403.548 362.497 410.732 367.602 417.577 373.022C429.06 382.042 440.885 390.697 451.885 400.232C465.448 411.937 475.696 426.274 480.811 443.801C483.688 453.656 485.929 463.714 488.047 473.781C490.448 485.124 492.819 496.52 494.441 508.033C496.075 519.759 497.133 531.54 494.745 543.505C492.633 554.024 489.412 564.032 483.601 572.989C480.278 578.053 476.463 582.776 472.212 587.09C463.447 596.073 453.692 604.034 443.135 610.821C423.696 623.205 403.334 633.821 382.638 643.644C372.043 648.663 361.125 652.406 349.32 652.977C342.675 653.302 336.001 652.504 330.002 649.842C318.82 644.827 308.036 639.014 296.944 633.804C291.341 631.163 285.443 629.127 279.686 626.768C273.323 624.155 266.914 621.663 260.649 618.78C253.833 615.638 247.207 612.147 240.488 608.761M316.764 688.005C311.895 683.961 309.188 678.346 306.062 672.989C301.309 664.893 296.471 656.726 288.923 650.87C285.119 647.835 281.127 645.043 276.972 642.511C268.414 637.378 259.538 632.72 250.987 627.594C231.725 616.123 215.413 601.153 200.976 584.014C194.533 576.35 188.141 568.593 180.048 562.505C172.987 557.058 165.136 552.72 156.767 549.64C146.243 545.922 135.65 542.44 125.125 538.769C113.139 534.735 102.724 527.036 95.3508 516.761C90.6697 510.309 87.1769 503.141 86.3909 494.666C85.3357 483.187 87.2312 472.394 90.8525 461.532C95.4977 447.458 104.551 436.926 116.085 428.391C125.286 421.606 135.927 418.154 147.022 416.189C159.61 413.943 172.273 411.938 184.777 409.189C207.524 404.178 228.753 395.351 247.185 380.523C253.946 375.108 259.889 368.745 264.832 361.632C274.742 347.417 279.719 331.7 281.09 314.691C281.912 304.64 283.171 294.651 285.647 284.823C287.644 276.96 293.076 272.093 299.381 268.077C308.797 262.154 319.102 262.589 329.365 264.793C333.179 265.54 336.885 266.761 340.397 268.428C348.801 272.693 355.262 279.475 360.476 287.088C366.328 295.633 371.317 304.77 376.369 313.854C385.509 330.32 396.239 345.508 410.491 357.834C417.664 364.025 425.194 369.792 432.646 375.651C446.883 386.861 461.192 397.978 472.546 412.361C478.855 420.341 483.167 429.474 486.998 438.864C491.234 449.369 492.75 460.585 494.99 471.628C497.373 483.476 499.748 495.344 501.827 507.25C504.708 523.944 504.258 540.616 499.536 557.04C497.062 565.448 493.233 573.397 488.201 580.574C479.214 593.645 467.834 604.203 455.347 613.416C443.21 622.368 430.135 630.014 417.649 638.399C399.755 650.408 382.03 662.656 364.111 674.582C355.439 680.333 346.534 685.727 336.402 688.519C329.888 690.339 323.443 690.397 317.065 688.214M348.297 571.001C345.17 568.537 341.803 566.297 338.947 563.528C335.472 560.094 331.919 556.535 329.281 552.447C322.384 541.758 323.244 529.888 325.951 518.023C328.284 508.079 331.63 498.401 335.937 489.141C343.986 471.481 355.559 456.655 369.98 444.03C380.408 434.874 392.625 432.874 405.556 436.781C408.865 437.917 411.92 439.689 414.549 441.997C423.377 449.322 428.897 459.106 432.883 469.733C437.312 481.459 440.688 493.556 442.97 505.881C445.336 518.96 445.296 532.021 439.971 544.429C438.038 548.963 434.282 552.865 430.865 556.628C422.578 565.792 412.024 571.791 400.657 575.647C391.82 578.691 382.383 579.582 373.132 578.245C364.588 576.97 356.345 574.912 348.6 571.148M450.406 111.333C435.795 114.465 421.514 119.312 406.527 120.516C394.867 121.47 384.658 118.733 375.842 110.664C364.582 100.347 356.247 87.9925 351.658 73.5559C348.495 63.3759 347.939 52.5643 350.041 42.1134C351.771 33.4823 353.393 24.7859 355.625 16.2752M436.487 95.2104C423.991 95.2446 411.537 94.0971 400.343 87.8719C390.62 82.4445 383.734 74.143 379.177 64.0162C374.228 53.1573 373.329 41.5261 375.112 29.8467M340.739 10.9993C335.866 23.6189 332.282 36.699 330.042 50.0398C328.196 61.1071 328.766 72.4427 331.712 83.2692C334.356 93.1365 339.475 101.909 344.01 110.906C348.293 119.138 351.91 127.699 354.829 136.507C357.991 146.434 354.502 154.537 348.632 161.694C341.346 170.62 331.098 175.494 320.581 179.299C303.437 185.394 285.629 189.43 267.533 191.323C256.335 192.532 245.109 193.753 233.982 195.477C223.611 197.092 214.967 202.461 207.766 210.138C206.067 211.958 204.41 214.122 203.65 216.455C200.799 225.073 199.532 233.967 200.826 242.952C202.607 255.374 204.897 267.718 206.761 280.095C208.892 294.211 209.065 308.012 201.005 320.993C196.968 327.635 191.113 332.981 184.131 336.397C170.251 343.235 155.577 344.313 140.723 341.794C140.723 341.794 103.21 332.369 92.8342 331.426C82.4586 330.482 73.2501 330.948 64.0526 334.567C52.5343 339.062 42.1813 346.102 33.7678 355.163C28.3135 361.028 22.8616 367.017 20.5094 374.887C17.4935 384.614 16.7761 394.908 18.4137 404.96C20.4443 417.089 22.7611 429.25 23.953 441.5C25.8053 460.757 26.8143 480.072 28.1238 499.399L28.6611 503.521C30.0451 509.794 31.2764 516.13 33.1579 522.263C36.1713 532.144 40.9349 541.273 46.6303 549.778C58.3204 567.217 73.8559 580.572 91.4828 591.465C101.039 597.365 110.983 602.575 120.771 608.1C128.455 612.436 135.309 617.775 139.569 625.703C144.27 634.46 145.264 644.405 132.235 650.165C124.664 653.452 116.531 655.253 108.28 655.468C88.9287 656.148 69.533 656.142 50.1791 657.074M418.223 901.626C425.554 889.521 435.722 879.959 447.278 871.575C459.078 863.029 471.234 854.878 481.484 844.177C487.729 837.628 493.529 830.879 497.046 822.551C499.182 817.497 500.523 812.108 501.766 806.783C505.13 792.377 505.062 777.766 504.687 763.117C504.238 744.984 503.926 726.842 504.182 708.666C504.429 695.434 506.992 682.347 511.754 669.999C517.431 654.998 525.766 641.411 533.307 627.426C542.701 610.033 547.932 591.61 549.931 572.121C552.12 550.963 551.984 529.791 550.704 508.688C549.355 488.431 546.962 468.257 543.532 448.248C539.895 426.493 531.321 407.011 517.683 390.112C508.172 378.318 497.618 367.376 487.43 356.153C478.954 346.925 471.447 336.852 465.028 326.091C463.217 322.969 462.035 319.487 460.823 316.065C456.106 302.527 454.182 288.363 452.233 274.157C450.737 262.563 448.47 251.081 445.446 239.788C442.19 227.888 437.233 216.503 433.577 204.698C430.196 194.011 426.937 183.137 428.394 171.61C428.804 168.329 429.64 165.114 430.881 162.049C436.868 147.557 447.974 138.371 462.026 132.462"
        stroke="#97a0a9" opacity="0.3" />
</svg>