<svg class="svg-icon" style="width: 1em;height: 1em;vertical-align: middle;fill: currentColor;overflow: hidden;"
    viewBox="0 0 1024 1024" version="1.1" xmlns="http://www.w3.org/2000/svg">
    <path
        d="M618.666667 597.333333h-85.333334V384h341.333334a21.333333 21.333333 0 0 0 21.333333-21.333333v-42.666667a21.333333 21.333333 0 0 0-12.245333-19.285333l-362.666667-170.666667a21.034667 21.034667 0 0 0-18.176 0l-362.666667 170.666667A21.333333 21.333333 0 0 0 128 320v42.666667a21.333333 21.333333 0 0 0 21.333333 21.333333h341.333334v213.333333h-85.333334a21.333333 21.333333 0 1 0 0 42.666667h85.333334v213.333333h-21.333334a21.333333 21.333333 0 0 0 0 42.666667h85.333334a21.333333 21.333333 0 0 0 0-42.666667h-21.333334V640h85.333334a21.333333 21.333333 0 1 0 0-42.666667zM170.666667 333.546667l341.333333-160.618667 341.333333 160.64V341.333333H170.666667zM297.6 739.925333A21.376 21.376 0 0 0 277.333333 725.333333H164.714667L126.933333 611.925333a21.333333 21.333333 0 1 0-40.490666 13.504L126.848 746.666667 86.4 867.925333a21.397333 21.397333 0 0 0 13.504 26.986667A21.141333 21.141333 0 0 0 106.666667 896a21.418667 21.418667 0 0 0 20.266666-14.592L164.714667 768h97.237333l37.802667 113.408A21.418667 21.418667 0 0 0 320 896a21.162667 21.162667 0 0 0 6.741333-1.066667 21.397333 21.397333 0 0 0 13.504-27.008zM897.152 746.666667l40.426667-121.258667a21.333333 21.333333 0 0 0-40.512-13.482667L859.306667 725.333333H746.666667a21.376 21.376 0 0 0-20.266667 14.592l-42.666667 128a21.397333 21.397333 0 0 0 13.525334 26.986667A21.162667 21.162667 0 0 0 704 896a21.418667 21.418667 0 0 0 20.266667-14.592L762.026667 768h97.237333l37.802667 113.408A21.418667 21.418667 0 0 0 917.333333 896a21.141333 21.141333 0 0 0 6.741334-1.066667 21.397333 21.397333 0 0 0 13.504-27.008z"
        fill="#FFFFFF" />
</svg>